%
M48
M72
T01C0.03937
T02C0.04700
T03C0.19685
%
T01
X316500Y281000
X326500Y281000
X286500Y161000
X296500Y161000
X306500Y161000
X316500Y161000
X326500Y161000
X336500Y161000
X346500Y161000
X356500Y161000
X366500Y161000
X376500Y161000
X386500Y161000
X396500Y161000
X406500Y161000
X416500Y161000
X426500Y161000
X446500Y161000
X396500Y151000
X386500Y151000
X376500Y151000
X286500Y151000
X296500Y151000
X306500Y151000
X316500Y151000
X246500Y151000
X256500Y151000
X256500Y161000
X266500Y151000
X276500Y151000
X276500Y161000
X266500Y161000
X246500Y161000
X306500Y281000
X306500Y291000
X336500Y281000
X336500Y291000
X396500Y281000
X346500Y281000
X296500Y291000
X296500Y281000
X316500Y291000
X326500Y291000
X346500Y291000
X406500Y281000
X386500Y281000
X416500Y291000
X436500Y291000
X416500Y281000
X426500Y291000
X436500Y281000
X426500Y281000
X436500Y271000
X436500Y261000
X436500Y251000
X446500Y251000
X446500Y261000
X446500Y271000
X446500Y281000
X446500Y291000
X386500Y291000
X356500Y281000
X366500Y281000
X376500Y281000
X396500Y291000
X406500Y291000
X376500Y291000
X366500Y291000
X356500Y291000
X326500Y151000
X336500Y151000
X346500Y151000
X356500Y151000
X366500Y151000
X416500Y151000
X406500Y151000
X426500Y151000
X436500Y161000
X436500Y151000
X446500Y151000
T02
X51500Y378500
X71500Y378500
X19000Y331000
X19000Y351000
X19000Y311000
X19000Y291000
X91500Y378500
X19000Y131000
X19000Y151000
X19000Y171000
X19000Y211000
X19000Y191000
X19000Y111000
X19000Y91000
X19000Y71000
X191500Y43500
X151500Y378500
X171500Y378500
X111500Y378500
X131500Y378500
X191500Y378500
X211500Y378500
X231500Y378500
X251500Y378500
X271500Y378500
X291500Y378500
X311500Y378500
X331500Y378500
X351500Y378500
X371500Y378500
X411500Y378500
X451500Y378500
X391500Y378500
X471500Y378500
X431500Y378500
X491500Y378500
X511500Y378500
X531500Y378500
X631500Y378500
X664000Y246000
X664000Y186000
X664000Y206000
X591500Y378500
X571500Y378500
X551500Y378500
X51500Y43500
X91500Y43500
X111500Y43500
X131500Y43500
X151500Y43500
X351500Y43500
X371500Y43500
X664000Y166000
X391500Y43500
X411500Y43500
X431500Y43500
X471500Y43500
X491500Y43500
X511500Y43500
X531500Y43500
X551500Y43500
X571500Y43500
X591500Y43500
X611500Y43500
X631500Y43500
X611500Y378500
X664000Y326000
X664000Y306000
X664000Y286000
X664000Y266000
X664000Y226000
X664000Y106000
X231500Y43500
X251500Y43500
X271500Y43500
X291500Y43500
X311500Y43500
X331500Y43500
X211500Y43500
X171500Y43500
X71500Y43500
X451500Y43500
X664000Y126000
X664000Y146000
T03
X21500Y376000
X21500Y46000
X661500Y46000
X661500Y376000
M30
